<svg xmlns="http://www.w3.org/2000/svg" width="330" height="325" viewBox="0 0 330 325">
  <g id="Path_2396" data-name="Path 2396" fill="#fff">
    <path d="M 309 324.5 L 21 324.5 C 18.23229217529297 324.5 15.54766654968262 323.9580383300781 13.02062511444092 322.8892211914063 C 10.57958316802979 321.8567504882813 8.387166976928711 320.3785400390625 6.50433349609375 318.4956970214844 C 4.621458530426025 316.6128234863281 3.143291711807251 314.4204711914063 2.110791683197021 311.9793701171875 C 1.041958332061768 309.4523620605469 0.5 306.7677001953125 0.5 304 L 0.5 21 C 0.5 18.23229217529297 1.041958332061768 15.54766654968262 2.110791683197021 13.02062511444092 C 3.143291711807251 10.57958316802979 4.621458530426025 8.387166976928711 6.50433349609375 6.50433349609375 C 8.387166976928711 4.621458530426025 10.57958316802979 3.143291711807251 13.02062511444092 2.110791683197021 C 15.54766654968262 1.041958332061768 18.23229217529297 0.5 21 0.5 L 309 0.5 C 311.7677001953125 0.5 314.4523620605469 1.041958332061768 316.9793701171875 2.110791683197021 C 319.4204711914063 3.143291711807251 321.6128234863281 4.621458530426025 323.4956970214844 6.50433349609375 C 325.3785400390625 8.387166976928711 326.8567504882813 10.57958316802979 327.8892211914063 13.02062511444092 C 328.9580383300781 15.54766654968262 329.5 18.23229217529297 329.5 21 L 329.5 304 C 329.5 306.7677001953125 328.9580383300781 309.4523620605469 327.8892211914063 311.9793701171875 C 326.8567504882813 314.4204711914063 325.3785400390625 316.6128234863281 323.4956970214844 318.4956970214844 C 321.6128234863281 320.3785400390625 319.4204711914063 321.8567504882813 316.9793701171875 322.8892211914063 C 314.4523620605469 323.9580383300781 311.7677001953125 324.5 309 324.5 Z" stroke="none"/>
    <path d="M 21 1 C 18.29959106445313 1 15.68045043945313 1.528656005859375 13.21536254882813 2.5712890625 C 10.83392333984375 3.57855224609375 8.6949462890625 5.020751953125 6.857879638671875 6.857879638671875 C 5.020751953125 8.6949462890625 3.57855224609375 10.83392333984375 2.5712890625 13.21536254882813 C 1.528656005859375 15.68045043945313 1 18.29959106445313 1 21 L 1 304 C 1 306.7004089355469 1.528656005859375 309.3195495605469 2.5712890625 311.7846374511719 C 3.57855224609375 314.1660766601563 5.020751953125 316.3050537109375 6.857879638671875 318.1421203613281 C 8.6949462890625 319.979248046875 10.83392333984375 321.4214477539063 13.21536254882813 322.4287109375 C 15.68045043945313 323.4713439941406 18.29959106445313 324 21 324 L 309 324 C 311.7004089355469 324 314.3195495605469 323.4713439941406 316.7846374511719 322.4287109375 C 319.1660766601563 321.4214477539063 321.3050537109375 319.979248046875 323.1421203613281 318.1421203613281 C 324.979248046875 316.3050537109375 326.4214477539063 314.1660766601563 327.4287109375 311.7846374511719 C 328.4713439941406 309.3195495605469 329 306.7004089355469 329 304 L 329 21 C 329 18.29959106445313 328.4713439941406 15.68045043945313 327.4287109375 13.21536254882813 C 326.4214477539063 10.83392333984375 324.979248046875 8.6949462890625 323.1421203613281 6.857879638671875 C 321.3050537109375 5.020751953125 319.1660766601563 3.57855224609375 316.7846374511719 2.5712890625 C 314.3195495605469 1.528656005859375 311.7004089355469 1 309 1 L 21 1 M 21 0 L 309 0 C 320.5979919433594 0 330 9.402008056640625 330 21 L 330 304 C 330 315.5979919433594 320.5979919433594 325 309 325 L 21 325 C 9.402008056640625 325 0 315.5979919433594 0 304 L 0 21 C 0 9.402008056640625 9.402008056640625 0 21 0 Z" stroke="none" fill="#707070"/>
  </g>
</svg>
