<svg xmlns="http://www.w3.org/2000/svg" width="14.571" height="17.341" viewBox="0 0 14.571 17.341">
  <path id="Path_2171" data-name="Path 2171" d="M18.53,53.652l2.567-.464c.615-.111,1.228-.245,1.847-.322.378-.046.573-.283.728-.687.589-1.523,1.2-3.035,1.8-4.55.06-.152.13-.3.242-.554.242.59.456,1.106.664,1.626.476,1.189.93,2.392,1.436,3.562a1,1,0,0,0,.6.54c1.378.291,2.764.524,4.148.78.149.028.3.074.533.134-.93,1.083-1.808,2.094-2.673,3.12a10.764,10.764,0,0,0-.872,1.169,1.022,1.022,0,0,0-.067.593c.219,1.708.454,3.414.683,5.12.024.181.034.367.063.7-.928-.613-1.76-1.169-2.6-1.713a12.1,12.1,0,0,0-1.793-1.1c-.252-.106-.641.157-.93.341-1.06.676-2.1,1.393-3.155,2.08-.1.068-.332.091-.366.026a1.078,1.078,0,0,1-.118-.582c.169-1.308.312-2.627.563-3.912a2.47,2.47,0,0,0-.6-2.4C20.277,56.091,19.442,54.848,18.53,53.652Z" transform="translate(-18.53 -47.075)" fill="#e5b831"/>
</svg>
