<svg xmlns="http://www.w3.org/2000/svg" width="15.007" height="26.265" viewBox="0 0 15.007 26.265">
  <path id="Path_2274" data-name="Path 2274" d="M606.348,500.509q0-5.542,0-11.084a1.886,1.886,0,0,1,2.041-2.048h10.94a1.884,1.884,0,0,1,2.027,2.033q0,11.1,0,22.2a1.884,1.884,0,0,1-2.026,2.034H608.36a1.882,1.882,0,0,1-2.012-2.018Q606.347,506.066,606.348,500.509Zm7.473-1.872q2.316,0,4.632,0a.945.945,0,0,0,1.035-1.039q0-3.649,0-7.3a.95.95,0,0,0-1.047-1.056q-4.588,0-9.176,0a.949.949,0,0,0-1.049,1.053q0,3.634,0,7.269a.954.954,0,0,0,1.062,1.071Q611.549,498.639,613.821,498.637Zm1.913,3.76c0-.312,0-.625,0-.937a.932.932,0,0,0-.94-.954q-.937-.013-1.874,0a.929.929,0,0,0-.947.946q-.012.937,0,1.874a.925.925,0,0,0,.924.939q.952.016,1.9,0a.929.929,0,0,0,.933-.931C615.74,503.022,615.733,502.709,615.733,502.4Zm-6.6,1.87c.322,0,.644.006.966,0a.941.941,0,0,0,0-1.883c-.634-.009-1.268-.01-1.9,0a.941.941,0,0,0,0,1.881C608.511,504.274,608.824,504.267,609.136,504.267Zm9.4,0c.322,0,.644.008.966,0a.941.941,0,0,0-.007-1.881q-.951-.016-1.9,0a.941.941,0,0,0,.007,1.883C617.916,504.273,618.228,504.267,618.54,504.267Zm-9.391,2.816c.312,0,.625,0,.937,0a.942.942,0,1,0,0-1.883q-.936-.011-1.873,0a.941.941,0,0,0,0,1.883C608.525,507.088,608.837,507.082,609.149,507.082Zm4.7,0c.322,0,.644.008.966,0a.941.941,0,0,0,0-1.881q-.951-.016-1.9,0a.941.941,0,0,0,0,1.883C613.222,507.088,613.534,507.082,613.846,507.082Zm4.674,0c.312,0,.624,0,.937,0a.942.942,0,1,0,0-1.884q-.922-.009-1.844,0a.942.942,0,1,0,0,1.883C617.915,507.087,618.218,507.082,618.52,507.082Zm-9.372,2.815c.312,0,.624,0,.936,0a.942.942,0,1,0,.006-1.883q-.936-.011-1.873,0a.941.941,0,0,0-.006,1.883C608.524,509.9,608.836,509.9,609.148,509.9Zm4.694,0c.312,0,.624,0,.937,0a.942.942,0,1,0,0-1.883c-.624-.008-1.249-.008-1.873,0a.941.941,0,0,0,0,1.883C613.217,509.9,613.53,509.9,613.842,509.9Zm4.677,0c.312,0,.625,0,.937,0a.942.942,0,1,0,.008-1.884q-.922-.009-1.844,0a.942.942,0,1,0-.008,1.883C617.913,509.9,618.216,509.9,618.518,509.9Zm-9.369,2.815c.312,0,.625,0,.937,0a.942.942,0,1,0,0-1.883c-.624-.008-1.249-.008-1.873,0a.941.941,0,0,0,0,1.883C608.525,512.719,608.837,512.712,609.149,512.712Zm4.688,0c.312,0,.625,0,.937,0a.942.942,0,1,0,.014-1.883q-.936-.012-1.873,0a.942.942,0,1,0,.015,1.883C613.232,512.717,613.535,512.712,613.837,512.712Zm4.719-1.886c-.312,0-.624,0-.937,0a.942.942,0,1,0-.009,1.883q.936.012,1.873,0a.941.941,0,0,0,.009-1.883C619.181,510.82,618.868,510.826,618.556,510.826Z" transform="translate(-606.348 -487.377)" fill="#ee4673"/>
</svg>
