       <svg id="Group_143" data-name="Group 143" xmlns="http://www.w3.org/2000/svg" width="150" height="150"
            viewBox="0 0 144.466 144.404">
            <path id="Path_2225" data-name="Path 2225"
              d="M54.938,224.817V176.98h47.77v47.837Zm42.028-5.848V182.655H60.7v36.314Z"
              transform="translate(-54.938 -80.412)" fill="#e5b831" />
            <path id="Path_2226" data-name="Path 2226"
              d="M141.758,185.544H94.033v-47.6h47.725ZM99.718,179.8h36.257V143.509H99.718Z"
              transform="translate(2.597 -137.866)" fill="#e5b831" />
            <path id="Path_2227" data-name="Path 2227"
              d="M102.568,185.593H54.993V137.91h47.575ZM96.9,179.946V143.637H60.51v36.309Z"
              transform="translate(-54.857 -137.91)" fill="#e5b831" />
            <path id="Path_2228" data-name="Path 2228"
              d="M116.285,184v15.4l7.462.348v7.625h-7.61v7.944H100.266v-7.442l7.432-.326v-7.741H92.041l-.4,7.437H84.381v-15.74h23.431l.381-8.112c2.845.245,5.5.475,8.154.7Z"
              transform="translate(-11.608 -70.974)" fill="#e5b831" />
            <path id="Path_2229" data-name="Path 2229"
              d="M103.363,198.918l.477-7.764-16.585-.875.044.052.546-7.239h15.727v-8.2H96.091V167.3h23.421v7.437h-7.445v8.1l7.556.356v7.5H111.9c0,3.03,0,5.633,0,8.243l.106-.121-8.755-.03Z"
              transform="translate(-7.378 -94.65)" fill="#e5b831" />
            <path id="Path_2230" data-name="Path 2230"
              d="M112.852,200.419l.435-8.025c-5.663.344-10.791.652-15.913.976l.072.1q-.059-4.46-.121-8.94l-.1.116c3.124,0,6.241,0,9.647,0v-7.62h14.435v15.712l7.586.336v7.254h-16.12Z"
              transform="translate(7.293 -80.353)" fill="#e5b831" />
            <path id="Path_2231" data-name="Path 2231"
              d="M101.46,163.892v15.7H77.779v-7.415h7.848v-8.258l-.1.109L101.569,164Z"
              transform="translate(-21.324 -99.673)" fill="#e5b831" />
            <path id="Path_2232" data-name="Path 2232" d="M87.469,168.719v-8.033H111.4v7.922H87.36Z"
              transform="translate(-7.224 -104.391)" fill="#e5b831" />
            <path id="Path_2233" data-name="Path 2233" d="M99.846,137.92v7.4l-7.892.415v7.717H84.349V137.92Z"
              transform="translate(-11.655 -137.895)" fill="#e5b831" />
            <path id="Path_2234" data-name="Path 2234" d="M54.968,176.184V160.652h7.437l.4,7.927H70.52v7.605Z"
              transform="translate(-54.894 -104.441)" fill="#e5b831" />
            <path id="Path_2235" data-name="Path 2235"
              d="M106.947,178.707l8.021-.539.363-7.694h7.474v15.433H107.041c0-2.385,0-4.849,0-7.319Z"
              transform="translate(21.602 -89.987)" fill="#e5b831" />
            <path id="Path_2236" data-name="Path 2236"
              d="M85.829,147.948,85.666,163.6l.106-.114H77.759v-15.9l8.156.462Z" transform="translate(-21.353 -123.661)"
              fill="#e5b831" />
            <path id="Path_2237" data-name="Path 2237" d="M103.7,168.539v-7.82h15.861v7.689H103.573Z"
              transform="translate(16.636 -104.343)" fill="#e5b831" />
            <path id="Path_2238" data-name="Path 2238" d="M65.055,170.288l15.626.213-.111-.106v7.838H64.642l.5-8.016Z"
              transform="translate(-40.657 -90.366)" fill="#e5b831" />
            <path id="Path_2239" data-name="Path 2239" d="M77.735,200.692v-7.343H93.166v7.343Z"
              transform="translate(-21.388 -56.322)" fill="#e5b831" />
            <path id="Path_2240" data-name="Path 2240" d="M93.211,180.277v7.341H77.768v-7.341Z"
              transform="translate(-21.34 -75.56)" fill="#e5b831" />
            <path id="Path_2241" data-name="Path 2241"
              d="M111.706,170.311q-.033,4.312-.072,8.631l.094-.114c-2.6-.148-5.186-.3-7.964-.465V170.44h8.072Z"
              transform="translate(16.919 -90.227)" fill="#e5b831" />
            <path id="Path_2242" data-name="Path 2242" d="M85.551,168.612H77.83V160.7h7.62v8.018Z"
              transform="translate(-21.249 -104.371)" fill="#e5b831" />
            <path id="Path_2243" data-name="Path 2243" d="M71.3,168.815v-8.137h7.521v7.6l-7.655.413Z"
              transform="translate(-31.053 -104.403)" fill="#e5b831" />
            <path id="Path_2244" data-name="Path 2244" d="M87.333,154.224H95.41v7.519H87.457V154.1Z"
              transform="translate(-7.263 -114.091)" fill="#e5b831" />
            <path id="Path_2245" data-name="Path 2245" d="M85.285,194.423H77.818V186.7h7.467Z"
              transform="translate(-21.266 -66.102)" fill="#e5b831" />
            <path id="Path_2246" data-name="Path 2246" d="M77.717,145.311v-7.353H85.33v7.353Z"
              transform="translate(-21.415 -137.839)" fill="#e5b831" />
            <path id="Path_2247" data-name="Path 2247" d="M71.2,174.883v-7.645h7.642v7.543q-3.878,0-7.751,0Z"
              transform="translate(-31.172 -94.749)" fill="#e5b831" />
            <path id="Path_2248" data-name="Path 2248" d="M62.41,170.472v7.563H54.985v-7.563Z"
              transform="translate(-54.869 -89.99)" fill="#e5b831" />
            <path id="Path_2249" data-name="Path 2249"
              d="M69.861,174.565l-8.423.383v-7.687h7.548c.257,2.484.509,4.938.774,7.383Z"
              transform="translate(-45.372 -94.715)" fill="#e5b831" />
            <path id="Path_2250" data-name="Path 2250"
              d="M76.288,163.921v7.4H68.569l-.766-7.358-.114.121q4.364-.026,8.73-.047Z"
              transform="translate(-36.173 -99.631)" fill="#e5b831" />
            <path id="Path_2251" data-name="Path 2251" d="M77.736,181.051v-7.279h7.682v7.279Z"
              transform="translate(-21.387 -85.133)" fill="#e5b831" />
            <path id="Path_2252" data-name="Path 2252"
              d="M91.577,176.6l.494,8.468H84.318v-7.279c2.543-.388,4.928-.751,7.309-1.127Z"
              transform="translate(-11.701 -80.971)" fill="#e5b831" />
            <path id="Path_2253" data-name="Path 2253" d="M72.1,168.761l-7.326-.47v-7.63h7.217c0,2.8,0,5.5,0,8.218Z"
              transform="translate(-40.467 -104.428)" fill="#e5b831" />
            <path id="Path_2254" data-name="Path 2254" d="M117.854,180.238V187.7h-7.5v-7.457Z"
              transform="translate(26.613 -75.617)" fill="#e5b831" />
            <path id="Path_2255" data-name="Path 2255" d="M80.958,154.135h7.6v7.724h-7.5c0-2.655,0-5.242,0-7.833Z"
              transform="translate(-16.645 -114.193)" fill="#e5b831" />
            <path id="Path_2256" data-name="Path 2256"
              d="M107.8,186.448l.445,8.325h-7.635V187.16c2.415-.2,4.849-.4,7.279-.608Z"
              transform="translate(12.268 -66.478)" fill="#e5b831" />
            <path id="Path_2257" data-name="Path 2257" d="M110.358,186.715h7.37v7.6h-7.37Z"
              transform="translate(26.622 -66.086)" fill="#e5b831" />
            <path id="Path_2258" data-name="Path 2258" d="M87.549,147.688h7.558v7.378H87.549Z"
              transform="translate(-6.946 -123.52)" fill="#e5b831" />
            <path id="Path_2259" data-name="Path 2259"
              d="M81.29,152.775l-.388-8.391h7.756v7.672c-2.583.205-5.025.4-7.462.606Z"
              transform="translate(-16.728 -128.382)" fill="#e5b831" />
            <path id="Path_2260" data-name="Path 2260" d="M111.358,200.743h-7.593v-7.408h7.593Z"
              transform="translate(16.919 -56.343)" fill="#e5b831" />
            <path id="Path_2261" data-name="Path 2261" d="M110.366,163.932H117.7v7.5h-7.338Z"
              transform="translate(26.633 -99.614)" fill="#e5b831" />
            <path id="Path_2262" data-name="Path 2262" d="M107.109,174.908v-7.633h7.455v7.5h-7.586Z"
              transform="translate(21.647 -94.695)" fill="#e5b831" />
            <path id="Path_2263" data-name="Path 2263" d="M107.917,163.83v7.677h-7.3v-7.541c2.5,0,4.963,0,7.422,0Z"
              transform="translate(12.292 -99.765)" fill="#e5b831" />
            <path id="Path_2264" data-name="Path 2264"
              d="M98.024,180.044l.413,7.949H90.8V180.18c2.44,0,4.891,0,7.341,0Z" transform="translate(-2.155 -75.903)"
              fill="#e5b831" />
            <path id="Path_2265" data-name="Path 2265" d="M91.813,158.673h-7.44v-7.689h7.321c0,2.63,0,5.223,0,7.815Z"
              transform="translate(-11.62 -118.669)" fill="#e5b831" />
            <path id="Path_2266" data-name="Path 2266" d="M107.075,189.992h7.252v7.5h-7.252Z"
              transform="translate(21.79 -61.263)" fill="#e5b831" />
            <path id="Path_2267" data-name="Path 2267" d="M117.769,200.716h-7.422v-7.39h7.422Z"
              transform="translate(26.605 -56.356)" fill="#e5b831" />
            <path id="Path_2268" data-name="Path 2268" d="M60.1,182.016H82.553v22.6H60.1Z"
              transform="translate(-47.344 -73.001)" fill="#e5b831" />
            <path id="Path_2269" data-name="Path 2269" d="M99.133,143.039h22.472v22.529H99.133Z"
              transform="translate(10.102 -130.362)" fill="#e5b831" />
            <path id="Path_2270" data-name="Path 2270" d="M60.115,143.035h22.5v22.539h-22.5Z"
              transform="translate(-47.319 -130.368)" fill="#e5b831" />
      </svg> 